<?xml version="1.0" encoding="utf-8"?>
<!-- Generator: Adobe Illustrator 24.0.2, SVG Export Plug-In . SVG Version: 6.00 Build 0)  -->
<svg version="1.1" id="Capa_1" xmlns="http://www.w3.org/2000/svg" xmlns:xlink="http://www.w3.org/1999/xlink" x="0px" y="0px"
	 viewBox="0 0 512 512" style="enable-background:new 0 0 512 512;" xml:space="preserve">
<style type="text/css">
	.st0{fill:#483018;}
</style>
<path class="st0" d="M481,165C481,74,407,0,316,0v30c74.4,0,135,60.6,135,135H481z"/>
<path class="st0" d="M316,60v30c41.4,0,75,33.6,75,75h30C421,107.1,373.9,60,316,60z"/>
<path class="st0" d="M31,482v30h210v-30h-33.8l-23.7-79c7.5-6.1,13.7-13.7,18.4-22.2c58.7,20.2,125,6.6,170.8-39.1l10.6-10.6
	L277.2,225l19.4-19.4c5.9,2.8,12.5,4.4,19.4,4.4c24.8,0,45-20.2,45-45s-20.2-45-45-45s-45,20.2-45,45c0,6.9,1.6,13.5,4.4,19.4
	L256,203.8L149.9,97.7l-10.6,10.6C93.6,154.1,80,220.5,100.2,279.1C76.9,291.9,61,316.6,61,345c0,23.4,10.7,44.3,27.5,58l-23.7,79
	H31z M316,150c8.3,0,15,6.7,15,15s-6.7,15-15,15s-15-6.7-15-15S307.7,150,316,150z M150.5,140.7l189.8,189.8
	c-36.6,29.4-85.6,37.5-129.6,21.7c0.2-2.4,0.4-4.8,0.4-7.2c0-41.4-33.6-75-75-75c-2.4,0-4.8,0.1-7.2,0.4
	C113,226.3,121.1,177.4,150.5,140.7z M136,300c24.8,0,45,20.2,45,45s-20.2,45-45,45s-45-20.2-45-45S111.2,300,136,300z M115.6,417.2
	c6.5,1.8,13.3,2.8,20.4,2.8s13.9-1,20.4-2.8l19.4,64.8H96.2L115.6,417.2z"/>
<path class="st0" d="M121,330h30v30h-30V330z"/>
</svg>
