<?xml version="1.0" encoding="utf-8"?>
<!-- Generator: Adobe Illustrator 24.0.2, SVG Export Plug-In . SVG Version: 6.00 Build 0)  -->
<svg version="1.1" id="Capa_1" xmlns="http://www.w3.org/2000/svg" xmlns:xlink="http://www.w3.org/1999/xlink" x="0px" y="0px"
	 viewBox="0 0 24 24" style="enable-background:new 0 0 24 24;" xml:space="preserve">
<style type="text/css">
	.st0{fill:none;}
	.st1{fill:#483018;}
</style>
<g>
	<rect class="st0" width="24" height="24"/>
</g>
<g>
	<g>
		<path class="st1" d="M17,22c1.7,0,3-1.3,3-3s-1.3-3-3-3c-1.3,0-2.4,0.8-2.8,2h-5l2-3.1c0.3,0,0.6,0.1,0.9,0.1s0.6,0,0.9-0.1l1,1.6
			c0.4-0.5,1-0.9,1.6-1.2L15,14.4c2.3-1.1,4-3.6,4-6.4H5c0,2.8,1.7,5.3,4.1,6.4l-3.9,6.1C4.9,21,5,21.6,5.5,21.9l0,0
			c0.5,0.3,1.1,0.2,1.4-0.3l1-1.5h6.3C14.6,21.2,15.7,22,17,22z M17,18c0.5,0,1,0.5,1,1s-0.5,1-1,1s-1-0.5-1-1S16.5,18,17,18z
			 M7.4,10h9.2c-0.8,1.8-2.5,3-4.6,3S8.2,11.8,7.4,10z"/>
		<path class="st1" d="M9.4,7h1c0.1-1.2,0.2-1.6-0.9-3C9.1,3.5,8.8,3.3,9.1,2h-1C7.9,3.1,8.1,4.1,9,5C9.2,5.2,9.8,5.6,9.4,7z"/>
		<path class="st1" d="M11.9,7h1C13,5.8,13.1,5.4,12,4c-0.4-0.5-0.7-0.8-0.5-2h-1c-0.2,1.1,0,2.1,0.9,3C11.7,5.2,12.2,5.6,11.9,7z"
			/>
		<path class="st1" d="M14.4,7h1c0.1-1.2,0.2-1.6-0.9-3c-0.4-0.5-0.7-0.8-0.5-2h-1c-0.2,1.1,0,2.1,0.9,3C14.2,5.2,14.8,5.6,14.4,7z"
			/>
	</g>
</g>
</svg>
