<?xml version="1.0" encoding="utf-8"?>
<!-- Generator: Adobe Illustrator 24.0.2, SVG Export Plug-In . SVG Version: 6.00 Build 0)  -->
<svg version="1.1" id="Capa_1" xmlns="http://www.w3.org/2000/svg" xmlns:xlink="http://www.w3.org/1999/xlink" x="0px" y="0px"
	 viewBox="0 0 24 24" style="enable-background:new 0 0 24 24;" xml:space="preserve">
<style type="text/css">
	.st0{fill:none;}
	.st1{fill:#483018;}
</style>
<path class="st0" d="M0,0h24v24H0V0z"/>
<path class="st1" d="M8.7,13.1c0.1,0,0.3,0,0.4,0c0.5,1.1,1.6,2,2.9,2s2.4-0.8,2.9-2c0.1,0,0.3,0,0.4,0c1.7,0,3.1-1.4,3.1-3.1
	c0-0.7-0.3-1.4-0.7-1.9c0.4-0.5,0.7-1.2,0.7-1.9c0-1.7-1.4-3.1-3.1-3.1c-0.1,0-0.3,0-0.4,0c-0.5-1.1-1.6-2-2.9-2S9.6,1.8,9.1,3
	c-0.1,0-0.3,0-0.4,0c-1.7,0-3.1,1.4-3.1,3.1c0,0.7,0.3,1.4,0.7,1.9C5.8,8.5,5.5,9.2,5.5,9.9C5.5,11.7,6.9,13.1,8.7,13.1z M12,13
	c-0.6,0-1.1-0.5-1.1-1.1l0.1-1.1c0.3,0.1,0.7,0.2,1,0.2s0.7-0.1,1-0.2l0.1,1.1C13.1,12.5,12.6,13,12,13z M15.3,11.1
	c-0.2,0-0.5-0.1-0.6-0.2l-0.8-0.6c0.6-0.4,0.9-1.1,1.1-1.8l0.9,0.4c0.4,0.2,0.7,0.6,0.7,1C16.5,10.6,16,11.1,15.3,11.1z M14.7,5.1
	c0.2-0.1,0.4-0.2,0.6-0.2c0.6,0,1.1,0.5,1.1,1.1c0,0.4-0.3,0.8-0.7,1l-0.9,0.4c-0.1-0.7-0.5-1.4-1.1-1.8C13.9,5.7,14.7,5.1,14.7,5.1
	z M12,3c0.6,0,1.1,0.5,1.1,1.1L13,5.2C12.7,5.1,12.4,5,12,5s-0.7,0.1-1,0.2l-0.1-1.1C10.9,3.5,11.4,3,12,3z M8.7,4.9
	c0.2,0,0.5,0.1,0.6,0.2l0.8,0.6C9.6,6.1,9.2,6.8,9.1,7.5L8.2,7.1c-0.4-0.2-0.7-0.6-0.7-1C7.5,5.4,8,4.9,8.7,4.9z M8.2,8.9l0.9-0.4
	c0.1,0.7,0.5,1.4,1.1,1.8l-0.8,0.6c-0.2,0.1-0.4,0.2-0.6,0.2c-0.6,0-1.1-0.5-1.1-1.1C7.5,9.5,7.8,9.1,8.2,8.9z M12,22c5,0,9-4,9-9
	C16,13,12,17,12,22z M14.4,19.6c0.7-1.9,2.2-3.4,4.1-4.1C17.9,17.3,16.3,18.9,14.4,19.6z M3,13c0,5,4,9,9,9C12,17,8,13,3,13z
	 M5.4,15.4c1.9,0.7,3.4,2.2,4.1,4.1C7.7,18.9,6.1,17.3,5.4,15.4z"/>
</svg>
